<svg width="181" height="24" viewBox="0 0 181 24" fill="none" xmlns="http://www.w3.org/2000/svg">
<path d="M7.10113 23L2.99113 11.33C2.60113 10.25 1.76113 8.24 0.651133 6.95H9.02113C7.64113 8.45 8.30113 10.91 8.69113 12.02L10.7011 17.87C11.2111 16.61 11.9611 14.42 12.4111 12.53L11.9911 11.33C11.6011 10.25 10.7611 8.24 9.65113 6.95H18.0211C16.6411 8.45 17.3911 10.88 17.6911 12.02L19.2811 17.84C20.3311 15.02 22.4011 3.23 26.9911 1.76C29.6911 0.889999 31.2511 2.78 31.2511 4.64C31.2511 7.22 28.2811 8.03 26.9011 7.01C25.9711 6.32 24.6811 6.89 23.5111 9.23C22.4011 11.45 20.2711 17.78 18.7711 23H16.1011L13.0711 14.36C11.6611 17.78 10.7911 21.5 10.2211 23H7.10113ZM31.8811 5.99L31.8511 19.1C31.8511 20.09 32.0011 21.89 33.1711 23H25.4011C26.5711 21.89 26.7211 20.09 26.7211 19.1V13.61C26.7211 12.08 26.9011 9.53 25.8211 8.3C27.2911 8.3 30.1711 7.97 31.8811 5.99ZM33.5182 23L40.6282 7.97H40.1182C37.5082 7.97 34.3582 9.2 33.7882 12.44L34.0282 7.01H46.7482L39.6082 22.07H40.2082C42.8182 22.07 45.8782 20.66 46.5382 16.13V23H33.5182ZM61.2565 23H58.2265C56.6365 23 55.6465 22.28 55.6465 19.97C55.1065 21.32 53.5765 23.09 51.3565 23.09C49.4665 23.09 47.6365 21.83 47.6365 19.52C47.6365 15.65 52.7665 12.14 55.6165 11.36V11.21C55.6165 9.71 55.7065 7.76 53.5165 7.76C51.8365 7.76 51.9565 9.83 51.9565 10.46C51.9565 14.09 47.9665 14.03 47.9665 10.97C47.9665 8.24 51.0865 6.86 53.7565 6.86C57.5665 6.86 60.8965 8.3 60.7465 13.07L60.5365 19.94C60.5665 21.23 60.6265 22.52 61.2565 23ZM55.6165 18.53V12.05C54.1165 12.59 52.6465 14.9 52.5565 17.72C52.5265 18.95 53.2465 19.85 54.1165 19.85C54.8065 19.85 55.6165 19.28 55.6165 18.53ZM67.9627 19.1C67.9627 20.09 68.1127 21.89 69.2827 23H61.5127C62.6827 21.89 62.8327 20.09 62.8327 19.1V13.61C62.8327 12.08 62.5027 9.53 61.6927 7.4C63.1627 7.73 65.9827 7.49 67.8127 6.41L67.9627 9.23C68.5027 7.82 69.8527 6.02 71.7727 6.2C73.3027 6.35 74.1727 7.97 74.1727 9.35C74.1727 12.17 72.2527 13.04 70.6327 12.41C71.2327 11.36 70.6627 9.56 69.6727 9.56C68.7427 9.56 68.0527 11.87 67.9627 13.79V19.1ZM82.23 19.52V10.46C82.23 9.95 82.2 7.94 80.97 7.94C78.24 7.94 78.09 21.11 80.73 21.11C81.51 21.11 82.11 20.33 82.23 19.52ZM87.36 19.1C87.36 20.09 87.51 21.89 88.68 23H82.23V20.9C81.6 21.95 80.55 23 78.72 23C74.64 23 73.74 17.9 73.74 15.47C73.74 11.36 75.63 6.86 79.77 6.86C80.88 6.86 81.72 7.16 82.23 7.64C82.23 6.11 82.2 3.2 81.12 1.97C82.59 1.97 85.53 1.58 87.36 0.499998V19.1ZM90.1533 7.19L90.9333 3.74C91.4433 1.46 94.3533 2.51 93.3033 4.01L91.0833 7.19H90.1533ZM98.1249 11.72C99.8949 13.04 106.525 12.35 106.525 17.96C106.525 21.83 103.855 23.54 100.465 23.51C98.4549 23.48 94.7349 23.42 93.7749 20.39C93.1749 18.5 94.0449 16.91 95.3949 16.76C97.1649 16.58 98.4549 17.93 97.9149 19.46C97.4949 20.69 98.4249 22.85 100.255 22.82C103.165 22.76 103.015 19.43 102.685 18.83C101.065 15.77 94.1349 17.78 93.7749 12.53C93.5049 8.72 96.3249 6.89 99.7449 6.71C101.395 6.62 103.645 6.92 105.025 8.21C106.855 9.92 105.715 12.05 104.515 12.35C102.715 12.8 101.245 11.87 101.665 10.73C101.965 9.92 101.785 7.85 100.375 7.64C97.5849 7.22 96.2949 10.37 98.1249 11.72ZM121.528 19.1C121.528 20.09 121.678 21.89 122.848 23H115.078C116.248 21.89 116.398 20.09 116.398 19.1V8.48C116.398 7.31 116.488 3.65 115.168 2.33C116.638 2.33 119.728 1.79 121.528 0.499998V9.47C122.368 8 123.658 6.86 125.638 6.86C128.368 6.86 129.808 8.93 129.808 12.8V19.1C129.808 20.09 129.958 21.89 131.128 23H123.328C124.498 21.89 124.648 20.09 124.648 19.1V13.43C124.648 10.85 124.018 9.5 123.058 9.5C122.368 9.5 121.528 10.64 121.528 12.77V19.1ZM137.618 23.3C133.538 23.3 130.898 19.7 130.898 15.23C130.898 10.13 134.318 6.32 139.088 6.32C141.098 6.32 143.798 7.73 143.798 10.4C143.798 14.12 138.548 17.09 136.358 17.18C138.548 19.82 143.378 19.07 144.098 15.02C144.608 21.29 141.338 23.3 137.618 23.3ZM134.228 11.75C134.318 14.39 135.128 15.68 135.938 16.7C137.648 16.1 139.178 12.35 139.178 10.1C139.178 8.81 138.248 7.97 137.018 7.97C135.068 7.97 134.168 9.89 134.228 11.75ZM158.434 23H155.404C153.814 23 152.824 22.28 152.824 19.97C152.284 21.32 150.754 23.09 148.534 23.09C146.644 23.09 144.814 21.83 144.814 19.52C144.814 15.65 149.944 12.14 152.794 11.36V11.21C152.794 9.71 152.884 7.76 150.694 7.76C149.014 7.76 149.134 9.83 149.134 10.46C149.134 14.09 145.144 14.03 145.144 10.97C145.144 8.24 148.264 6.86 150.934 6.86C154.744 6.86 158.074 8.3 157.924 13.07L157.714 19.94C157.744 21.23 157.804 22.52 158.434 23ZM152.794 18.53V12.05C151.294 12.59 149.824 14.9 149.734 17.72C149.704 18.95 150.424 19.85 151.294 19.85C151.984 19.85 152.794 19.28 152.794 18.53ZM165.14 19.1C165.14 20.09 165.29 21.89 166.46 23H158.69C159.86 21.89 160.01 20.09 160.01 19.1V13.61C160.01 12.08 159.68 9.53 158.87 7.4C160.34 7.73 163.16 7.49 164.99 6.41L165.14 9.23C165.68 7.82 167.03 6.02 168.95 6.2C170.48 6.35 171.35 7.97 171.35 9.35C171.35 12.17 169.43 13.04 167.81 12.41C168.41 11.36 167.84 9.56 166.85 9.56C165.92 9.56 165.23 11.87 165.14 13.79V19.1ZM171.662 8.33V7.58C174.692 7.28 176.372 4.88 177.482 2C177.572 2 177.782 2 177.782 2C177.722 3.11 177.812 4.4 177.812 5.27V7.43C179.282 7.4 179.342 7.37 179.402 7.31V8.93C179.222 8.63 178.112 8.03 177.812 8.03V19.34C177.812 20.06 179.162 21.56 180.452 19.1C180.092 23.42 177.632 23.27 176.402 23.27C173.912 23.27 172.712 21.29 172.712 19.34V8.21L171.662 8.33Z" fill="white"/>
</svg>
