<svg width="800" height="800" viewBox="0 0 800 800" fill="none" xmlns="http://www.w3.org/2000/svg">
<path d="M400 733.333C584.095 733.333 733.333 584.095 733.333 400C733.333 215.905 584.095 66.6667 400 66.6667C215.905 66.6667 66.6666 215.905 66.6666 400C66.6666 584.095 215.905 733.333 400 733.333Z" stroke="white" stroke-width="33.3333" stroke-linecap="square"/>
<path d="M400 733.333C488.889 652.525 533.333 541.414 533.333 400C533.333 258.586 488.889 147.475 400 66.6667C311.111 147.475 266.667 258.586 266.667 400C266.667 541.414 311.111 652.525 400 733.333Z" stroke="white" stroke-width="33.3333" stroke-linecap="round"/>
<path d="M83.3334 300H716.667M83.3334 500H716.667" stroke="white" stroke-width="33.3333" stroke-linecap="round"/>
</svg>
