<svg width="100" height="100" viewBox="0 0 100 100" fill="none" xmlns="http://www.w3.org/2000/svg">
<path d="M22.1154 71.1538L13.3393 37.1731C12.5893 35.0962 10.9739 31.2308 8.8393 28.75H24.9355C22.2816 31.6346 23.5508 36.3654 24.3008 38.5L27.8846 53.8462C28.8654 51.4231 29.9038 43.0577 30.7692 39.4231L30.647 37.1731C29.897 35.0962 28.2816 31.2308 26.147 28.75H42.2432C39.5893 31.6346 41.0316 36.3077 41.6085 38.5L44.2308 53.8462C46.25 48.4231 50.6662 21.5962 59.4932 18.7692C64.6855 17.0962 67.6855 20.7308 67.6855 24.3077C67.6855 29.2692 61.9739 30.8269 59.3201 28.8654C57.5316 27.5385 55.0508 28.6346 52.8008 33.1346C50.6662 37.4039 51.9231 61.1154 49.0385 71.1538H40.3846L34.6154 53.8462C31.9039 60.4231 32.5508 68.2692 31.4547 71.1538H22.1154Z" fill="white"/>
<path d="M71.1098 64.6154C71.1098 66.5192 71.3983 69.9808 73.6483 72.1154H58.706C60.956 69.9808 61.2444 66.5192 61.2444 64.6154V44.1923C61.2444 41.9423 61.4175 34.9039 58.879 32.3654C61.706 32.3654 66.3462 32.3654 71.1098 26.9231V46.0962C72.7252 43.2692 75.206 41.0769 79.0137 41.0769C84.2637 41.0769 87.0329 45.0577 87.0329 52.5V64.6154C87.0329 66.5192 87.3214 69.9808 89.5714 72.1154H74.5714C76.8214 69.9808 77.1098 66.5192 77.1098 64.6154V53.7115C77.1098 48.75 75.8983 46.1539 74.0521 46.1539C72.7252 46.1539 71.1098 48.3462 71.1098 52.4423V64.6154Z" fill="white"/>
<circle cx="50" cy="50" r="49.5" stroke="white"/>
</svg>
